<?xml version="1.0" encoding="UTF-8"?>
<svg width="22px" height="22px" viewBox="0 0 22 22" version="1.1" xmlns="http://www.w3.org/2000/svg" xmlns:xlink="http://www.w3.org/1999/xlink">
    <!-- Generator: Sketch 52.2 (67145) - http://www.bohemiancoding.com/sketch -->
    <title>Group 2</title>
    <desc>Created with Sketch.</desc>
    <g id="Page-1" stroke="none" stroke-width="1" fill="none" fill-rule="evenodd">
        <g id="Artboard" transform="translate(-1357.000000, -912.000000)">
            <g id="таймлайн" transform="translate(541.000000, 901.000000)">
                <g id="Group-2" transform="translate(816.000000, 11.000000)">
                    <rect id="Rectangle" x="0" y="0" width="22" height="22"></rect>
                    <path d="M21.214311,11.1060174 C21.214311,11.2165086 21.1652038,11.3269998 21.091543,11.4006606 L16.3772517,15.7466479 C16.2544837,15.8571391 16.0948853,15.8816927 15.9475637,15.8203087 C15.8125188,15.7589247 15.7143044,15.6238799 15.7143044,15.4642815 L15.7143044,12.7142782 L0.392857611,12.7142782 C0.171875205,12.7142782 0,12.542403 0,12.3214206 L0,9.96427494 C0,9.74329254 0.171875205,9.57141733 0.392857611,9.57141733 L15.7143044,9.57141733 L15.7143044,6.82141405 C15.7143044,6.66181565 15.800242,6.52677085 15.9475637,6.46538684 C16.0948853,6.40400284 16.2544837,6.42855644 16.3772517,6.52677085 L21.091543,10.823651 C21.1652038,10.8973118 21.214311,10.9955262 21.214311,11.1060174 Z" id="long-arrow-right---FontAwesome" fill="#FFFFFF"></path>
                </g>
            </g>
        </g>
    </g>
</svg>