<?xml version="1.0" encoding="UTF-8"?>
<svg width="36px" height="36px" viewBox="0 0 36 36" version="1.1" xmlns="http://www.w3.org/2000/svg" xmlns:xlink="http://www.w3.org/1999/xlink">
    <!-- Generator: Sketch 52.2 (67145) - http://www.bohemiancoding.com/sketch -->
    <title>noun_launch_1156476_000000</title>
    <desc>Created with Sketch.</desc>
    <g id="Page-1" stroke="none" stroke-width="1" fill="none" fill-rule="evenodd">
        <g id="Artboard" transform="translate(-779.000000, -344.000000)">
            <g id="noun_launch_1156476_000000" transform="translate(779.000000, 344.000000)">
                <rect id="Rectangle" x="0" y="0" width="36" height="36"></rect>
                <path d="M10.0588234,3.75 C8.67035289,5.53125008 4.76470583,16.2187493 6.52941176,25.1250007 L3,32.25 L8.29411759,30.4687499 L8.29411759,32.25 L11.8235288,32.25 L11.8235288,30.4687499 L17.1176466,32.25 L13.5882358,25.1250007 C15.3529417,16.2187493 11.8235288,5.53125008 10.0588234,3.75 Z M33,32.25 L33,30.4687499 L31.2352941,30.4687499 L31.2352941,3.75 L22.4117644,3.75 L22.4117644,10.8749998 L13.5882358,10.8749998 L15.3529417,12.6562501 L22.4117644,12.6562501 L22.4117644,32.25 L33,32.25 Z M24.1764704,5.53125008 L29.4705881,5.53125008 L24.1764704,10.8749998 L24.1764704,5.53125008 Z M24.1764704,12.6562501 L29.4705881,12.6562501 L29.4705881,17.9999993 L24.1764704,12.6562501 Z M24.1764704,19.7812504 L29.4705881,19.7812504 L24.1764704,25.1250007 L24.1764704,19.7812504 Z M29.4705881,30.4687499 L27.7058822,30.4687499 L24.1764704,26.9062498 L29.4705881,26.9062498 L29.4705881,30.4687499 Z" id="Shape" fill="#FFFFFF" fill-rule="nonzero"></path>
            </g>
        </g>
    </g>
</svg>