<?xml version="1.0" encoding="UTF-8"?>
<svg width="32px" height="32px" viewBox="0 0 32 32" version="1.1" xmlns="http://www.w3.org/2000/svg" xmlns:xlink="http://www.w3.org/1999/xlink">
    <!-- Generator: Sketch 52.2 (67145) - http://www.bohemiancoding.com/sketch -->
    <title>Back</title>
    <desc>Created with Sketch.</desc>
    <g id="Page-1" stroke="none" stroke-width="1" fill="none" fill-rule="evenodd">
        <g id="Artboard" transform="translate(-1824.000000, -64.000000)">
            <g id="Правое-меню" transform="translate(1471.000000, 64.000000)">
                <g id="Закрыть" transform="translate(353.000000, 0.000000)">
                    <g id="Back">
                        <rect id="Rectangle" x="0" y="0" width="32" height="32"></rect>
                        <path d="M28.0000286,15.1428454 L28.0000286,17.714277 C28.0000286,17.9553487 27.8125284,18.142849 27.5714567,18.142849 L10.857151,18.142849 L10.857151,21.1428525 C10.857151,21.3169599 10.7634009,21.4642815 10.6026864,21.5312459 C10.441972,21.5982102 10.2678646,21.5714245 10.1339359,21.4642815 L4.99107261,16.7767759 C4.91071537,16.6964187 4.85714388,16.5892757 4.85714388,16.4687398 C4.85714388,16.348204 4.91071537,16.2276681 4.99107261,16.1473109 L10.1339359,11.4062338 C10.2678646,11.2856979 10.441972,11.2589122 10.6026864,11.3258766 C10.750008,11.3928409 10.857151,11.5401625 10.857151,11.7142699 L10.857151,14.7142735 L27.5714567,14.7142735 C27.8125284,14.7142735 28.0000286,14.9017737 28.0000286,15.1428454 Z" id="long-arrow-left---FontAwesome" fill="#63ABFF"></path>
                    </g>
                </g>
            </g>o
        </g>
    </g>
</svg>