<?xml version="1.0" encoding="UTF-8"?>
<svg width="22px" height="22px" viewBox="0 0 22 22" version="1.1" xmlns="http://www.w3.org/2000/svg" xmlns:xlink="http://www.w3.org/1999/xlink">
    <!-- Generator: Sketch 52.2 (67145) - http://www.bohemiancoding.com/sketch -->
    <title>LeftArrow</title>
    <desc>Created with Sketch.</desc>
    <g id="Page-1" stroke="none" stroke-width="1" fill="none" fill-rule="evenodd">
        <g id="Artboard" transform="translate(-541.000000, -912.000000)">
            <g id="таймлайн" transform="translate(541.000000, 901.000000)">
                <g id="LeftArrow" transform="translate(0.000000, 11.000000)">
                    <rect id="Rectangle" x="0" y="0" width="22" height="22"></rect>
                    <path d="M22.0000262,9.96427494 L22.0000262,12.3214206 C22.0000262,12.542403 21.828151,12.7142782 21.6071686,12.7142782 L6.28572178,12.7142782 L6.28572178,15.4642815 C6.28572178,15.6238799 6.19978418,15.7589247 6.05246257,15.8203087 C5.90514097,15.8816927 5.74554256,15.8571391 5.62277456,15.7589247 L0.908483226,11.4620446 C0.834822424,11.3883838 0.785715222,11.2901694 0.785715222,11.1796782 C0.785715222,11.069187 0.834822424,10.9586958 0.908483226,10.885035 L5.62277456,6.53904765 C5.74554256,6.42855644 5.90514097,6.40400284 6.05246257,6.46538684 C6.18750738,6.52677085 6.28572178,6.66181565 6.28572178,6.82141405 L6.28572178,9.57141733 L21.6071686,9.57141733 C21.828151,9.57141733 22.0000262,9.74329254 22.0000262,9.96427494 Z" id="long-arrow-left---FontAwesome" fill="#FFFFFF"></path>
                </g>
            </g>
        </g>
    </g>
</svg>