<?xml version="1.0" encoding="UTF-8"?>
<svg width="26px" height="26px" viewBox="0 0 26 26" version="1.1" xmlns="http://www.w3.org/2000/svg" xmlns:xlink="http://www.w3.org/1999/xlink">
    <!-- Generator: Sketch 52.2 (67145) - http://www.bohemiancoding.com/sketch -->
    <title>Где</title>
    <desc>Created with Sketch.</desc>
    <g id="Page-1" stroke="none" stroke-width="1" fill="none" fill-rule="evenodd">
        <g id="Artboard" transform="translate(-1483.000000, -222.000000)">
            <g id="Правое-меню" transform="translate(602.000000, 64.000000)">
                <g id="Где" transform="translate(881.000000, 158.000000)">
                    <rect id="Rectangle" x="0" y="0" width="26" height="26"></rect>
                    <path d="M20.6361794,6.75221635 L13.4933137,21.0379477 C13.3705457,21.2834837 13.1250097,21.4285731 12.8571522,21.4285731 C12.8013486,21.4285731 12.7455449,21.4174124 12.6897413,21.4062517 C12.3660802,21.3281266 12.1428657,21.0491084 12.1428657,20.7142866 L12.1428657,14.2857075 L5.71428657,14.2857075 C5.37946474,14.2857075 5.10044655,14.0624929 5.02232146,13.7388318 C4.94419636,13.4151707 5.10044655,13.0803489 5.39062547,12.9352594 L19.6763568,5.79239378 C19.7768033,5.73659014 19.8884106,5.71426868 20.0000179,5.71426868 C20.1897503,5.71426868 20.3683219,5.78123305 20.5022506,5.92632251 C20.7254652,6.13837633 20.7812688,6.47319816 20.6361794,6.75221635 Z" id="location-arrow---FontAwesome" fill="#FFFFFF"></path>
                </g>
            </g>
        </g>
    </g>
</svg>