<?xml version="1.0" encoding="UTF-8"?>
<svg width="26px" height="26px" viewBox="0 0 26 26" version="1.1" xmlns="http://www.w3.org/2000/svg" xmlns:xlink="http://www.w3.org/1999/xlink">
    <!-- Generator: Sketch 52.2 (67145) - http://www.bohemiancoding.com/sketch -->
    <title>Когда</title>
    <desc>Created with Sketch.</desc>
    <g id="Page-1" stroke="none" stroke-width="1" fill="none" fill-rule="evenodd">
        <g id="Artboard" transform="translate(-1483.000000, -180.000000)">
            <g id="Правое-меню" transform="translate(1471.000000, 64.000000)">
                <g id="Когда" transform="translate(12.000000, 116.000000)">
                    <rect id="Rectangle" x="0" y="0" width="26" height="26"></rect>
                    <path d="M5.42857313,21.4285731 L21.1428776,21.4285731 L21.1428776,9.99998808 L5.42857313,9.99998808 L5.42857313,21.4285731 Z M9.71429253,7.85712838 L9.71429253,4.64283884 C9.71429253,4.44194574 9.55804234,4.28569555 9.35714924,4.28569555 L8.64286268,4.28569555 C8.44196958,4.28569555 8.28571939,4.44194574 8.28571939,4.64283884 L8.28571939,7.85712838 C8.28571939,8.05802148 8.44196958,8.21427166 8.64286268,8.21427166 L9.35714924,8.21427166 C9.55804234,8.21427166 9.71429253,8.05802148 9.71429253,7.85712838 Z M18.2857313,7.85712838 L18.2857313,4.64283884 C18.2857313,4.44194574 18.1294811,4.28569555 17.928588,4.28569555 L17.2143015,4.28569555 C17.0134084,4.28569555 16.8571582,4.44194574 16.8571582,4.64283884 L16.8571582,7.85712838 C16.8571582,8.05802148 17.0134084,8.21427166 17.2143015,8.21427166 L17.928588,8.21427166 C18.1294811,8.21427166 18.2857313,8.05802148 18.2857313,7.85712838 Z M22.5714507,7.14284182 L22.5714507,21.4285731 C22.5714507,22.2098241 21.9241285,22.8571463 21.1428776,22.8571463 L5.42857313,22.8571463 C4.6473222,22.8571463 4,22.2098241 4,21.4285731 L4,7.14284182 C4,6.36159088 4.6473222,5.71426868 5.42857313,5.71426868 L6.85714626,5.71426868 L6.85714626,4.64283884 C6.85714626,3.66069481 7.66071865,2.85712242 8.64286268,2.85712242 L9.35714924,2.85712242 C10.3392933,2.85712242 11.1428657,3.66069481 11.1428657,4.64283884 L11.1428657,5.71426868 L15.4285851,5.71426868 L15.4285851,4.64283884 C15.4285851,3.66069481 16.2321574,2.85712242 17.2143015,2.85712242 L17.928588,2.85712242 C18.9107321,2.85712242 19.7143044,3.66069481 19.7143044,4.64283884 L19.7143044,5.71426868 L21.1428776,5.71426868 C21.9241285,5.71426868 22.5714507,6.36159088 22.5714507,7.14284182 Z" id="calendar-o---FontAwesome" fill="#FFFFFF"></path>
                </g>
            </g>
        </g>
    </g>
</svg>